<?xml version="1.0" encoding="iso-8859-1"?>
<!-- Generator: Adobe Illustrator 19.0.0, SVG Export Plug-In . SVG Version: 6.00 Build 0)  -->
<svg version="1.1" id="Capa_1" xmlns="http://www.w3.org/2000/svg" xmlns:xlink="http://www.w3.org/1999/xlink" x="0px" y="0px"
	 viewBox="0 0 463.956 463.956" style="enable-background:new 0 0 463.956 463.956;" xml:space="preserve">
<path style="fill:#E6E6E6;" d="M311.978,463.956h-160v-104l80-40l80,40V463.956z"/>
<path style="fill:#D6562B;" d="M127.978,335.956l104-48l104,48v-40l-104-48l-104,48V335.956z"/>
<path style="fill:#ED1C24;" d="M311.978,79.956c0.001-43.09-34.128-78.44-77.192-79.952c-27.832-0.269-53.866,13.721-69,37.08
	c-10.562,14.737-15.334,32.844-13.408,50.872h-0.4l1.232,5.544c0.441,2.604,1.015,5.183,1.72,7.728
	c8.477,38.153,28.908,72.606,58.32,98.344l18.728,16.384l7.88-5.912c36.143-27.106,61.023-66.587,69.88-110.888l2.24-11.2h-0.4
	C311.834,85.324,311.978,82.66,311.978,79.956L311.978,79.956z"/>
<circle style="fill:#F2F2F2;" cx="231.978" cy="79.956" r="32"/>
<path style="fill:#0378A3;" d="M207.978,407.956h48v56h-48V407.956z"/>
<g>
</g>
<g>
</g>
<g>
</g>
<g>
</g>
<g>
</g>
<g>
</g>
<g>
</g>
<g>
</g>
<g>
</g>
<g>
</g>
<g>
</g>
<g>
</g>
<g>
</g>
<g>
</g>
<g>
</g>
</svg>
