<?xml version="1.0" encoding="iso-8859-1"?>
<!-- Generator: Adobe Illustrator 19.0.0, SVG Export Plug-In . SVG Version: 6.00 Build 0)  -->
<svg version="1.1" id="Capa_1" xmlns="http://www.w3.org/2000/svg" xmlns:xlink="http://www.w3.org/1999/xlink" x="0px" y="0px"
	 viewBox="0 0 479.952 479.952" style="enable-background:new 0 0 479.952 479.952;" xml:space="preserve">
<path style="fill:#E6E6E6;" d="M319.976,471.952h-160v-104l80-40l80,40V471.952z"/>
<path style="fill:#D6562B;" d="M135.976,343.952l104-48l104,48v-40l-104-48l-104,48V343.952z"/>
<path style="fill:#ED1C24;" d="M319.976,87.952c0.001-43.09-34.128-78.44-77.192-79.952c-27.832-0.269-53.866,13.721-69,37.08
	c-10.562,14.737-15.334,32.844-13.408,50.872h-0.4l1.232,5.544c0.441,2.604,1.015,5.183,1.72,7.728
	c8.477,38.153,28.908,72.606,58.32,98.344l18.728,16.384l7.88-5.912c36.143-27.106,61.023-66.587,69.88-110.888l2.24-11.2h-0.4
	C319.832,93.32,319.976,90.656,319.976,87.952L319.976,87.952z"/>
<circle style="fill:#F2F2F2;" cx="239.976" cy="87.952" r="32"/>
<path style="fill:#0378A3;" d="M215.976,415.952h48v56h-48V415.952z"/>
<path d="M323.552,360.792l-80-40c-2.251-1.125-4.901-1.125-7.152,0l-80,40c-2.712,1.355-4.425,4.128-4.424,7.16v104
	c0,4.418,3.582,8,8,8h160c4.418,0,8-3.582,8-8v-104C327.977,364.92,326.264,362.147,323.552,360.792z M223.976,463.952v-40h32v40
	H223.976z M311.976,463.952h-40v-48c0-4.418-3.582-8-8-8h-48c-4.418,0-8,3.582-8,8v48h-40v-91.056l72-36l72,36V463.952z"/>
<path d="M347.328,296.688l-104-48c-2.127-0.981-4.577-0.981-6.704,0l-104,48c-2.833,1.308-4.648,4.143-4.648,7.264v40
	c0,4.418,3.582,8,8,8c1.157,0,2.301-0.251,3.352-0.736l100.648-46.464L340.624,351.2c1.049,0.493,2.193,0.75,3.352,0.752
	c4.418,0,8-3.582,8-8v-40C351.976,300.831,350.161,297.996,347.328,296.688L347.328,296.688z M335.976,331.456l-92.648-42.768
	c-2.127-0.981-4.577-0.981-6.704,0l-92.648,42.768v-22.4l96-44.304l96,44.32V331.456z"/>
<path d="M167.176,40.56c-11.112,15.542-16.417,34.491-14.992,53.544c-0.268,1.18-0.268,2.404,0,3.584l1.152,5.152
	c0.462,2.735,1.063,5.446,1.8,8.12c8.755,39.847,30.084,75.827,60.84,102.632l18.72,16.384c2.848,2.495,7.054,2.652,10.08,0.376
	l7.88-5.912c37.73-28.261,63.697-69.458,72.92-115.688l2.24-11.2c0.206-1.036,0.179-2.104-0.08-3.128
	c0.16-2.133,0.24-4.267,0.24-6.4c0.235-47.506-37.428-86.546-84.912-88.016C212.483-0.402,183.831,14.909,167.176,40.56
	L167.176,40.56z M242.504,15.992c38.826,1.209,69.629,33.115,69.472,71.96c0,2.4-0.128,4.8-0.36,7.2c-0.062,0.532-0.062,1.068,0,1.6
	l-1.76,8.8c-8.456,42.372-32.254,80.131-66.832,106.04l-2.696,2.024l-13.808-12.064c-28.283-24.671-47.876-57.789-55.88-94.456
	c-0.632-2.28-1.144-4.592-1.6-7.328l-0.672-3.04c0.055-0.532,0.055-1.068,0-1.6c-1.71-16.163,2.577-32.391,12.048-45.6
	c13.591-21.074,37.02-33.727,62.096-33.536L242.504,15.992z"/>
<path d="M239.976,127.952c22.091,0,40-17.909,40-40s-17.909-40-40-40s-40,17.909-40,40
	C200.002,110.032,217.896,127.926,239.976,127.952z M239.976,63.952c13.255,0,24,10.745,24,24s-10.745,24-24,24
	c-13.255,0-24-10.745-24-24S226.721,63.952,239.976,63.952z"/>
<g>
</g>
<g>
</g>
<g>
</g>
<g>
</g>
<g>
</g>
<g>
</g>
<g>
</g>
<g>
</g>
<g>
</g>
<g>
</g>
<g>
</g>
<g>
</g>
<g>
</g>
<g>
</g>
<g>
</g>
</svg>
